PathFileType	4	(X/Y/Z)	C:\Users\WrightLab\Desktop\Jo\P5V210.trc
DataRate	CameraRate	NumFrames	NumMarkers	Units	OrigDataRate	OrigDataStartFrame	OrigNumFrames
100.00	100.00	       39	19	mm	100.00	180	       716
Frame#	Time	Headset_Front			Headset_Back			Headset_Left			Headset_Right			Left_Shoulder			Right_Shoulder			Sternum			C7			Left Elbow			Right Elbow			Left Wrist			Right Wrist			Left ASIS			Right ASIS			S2			Left Knee			Right Knee			Left Ankle			Right Ankle			
		X1	Y1	Z1	X2	Y2	Z2	X3	Y3	Z3	X4	Y4	Z4	X5	Y5	Z5	X6	Y6	Z6	X7	Y7	Z7	X8	Y8	Z8	X9	Y9	Z9	X10	Y10	Z10	X11	Y11	Z11	X12	Y12	Z12	X13	Y13	Z13	X14	Y14	Z14	X15	Y15	Z15	X16	Y16	Z16	X17	Y17	Z17	X18	Y18	Z18	X19	Y19	Z19	

180	1.790										-310.26825	1655.89258	-1189.35596																-507.37283	1157.85828	-1341.71069				-461.33694	1008.72388	-1159.83008	-68.65728	906.31122	-1261.09302	-346.08032	924.17987	-1245.94641				-48.42052	469.97900	-1307.25952	-416.80124	470.36725	-1312.82764							
181	1.800										-310.01431	1655.73413	-1189.36328																-506.95560	1157.51855	-1341.39673				-461.17499	1008.93213	-1160.05493	-67.93569	906.30420	-1269.36206	-345.30145	923.87628	-1246.00903				-47.94119	469.10251	-1308.21375	-417.36844	471.50586	-1312.56616							
182	1.810										-309.74487	1655.55334	-1189.37439																-506.79123	1157.50903	-1341.47827				-461.40799	1008.56445	-1160.61072	-67.09441	906.05365	-1270.58411	-344.79617	923.47278	-1244.97656				-47.81565	469.32309	-1307.46777	-416.12384	470.40500	-1312.60217							
183	1.820										-309.46124	1655.07410	-1188.89209																-506.57828	1157.47668	-1341.63892				-461.41763	1008.56024	-1160.61218	-66.64243	905.40308	-1270.27332	-344.45111	923.91370	-1243.39246				-47.66347	468.81070	-1307.00073	-415.62637	470.33148	-1312.55054							
184	1.830										-309.22409	1654.46143	-1188.86047																-505.79175	1157.97290	-1343.67639				-461.35135	1008.57074	-1161.41235	-66.43456	905.71692	-1269.07227	-343.48233	923.59583	-1244.23157				-47.51108	469.09918	-1306.09802	-415.49292	470.31512	-1312.49377							
185	1.840										-308.95380	1654.10645	-1189.03174																-505.35257	1157.60132	-1343.48035				-461.37021	1008.56421	-1161.41553	-66.08540	906.39929	-1257.92261	-343.23483	923.85815	-1243.08533				-47.31507	469.43939	-1304.93286	-415.62915	470.79285	-1311.27673							
186	1.850										-308.73465	1653.76794	-1189.17432																-505.15283	1157.56934	-1343.58704				-461.39578	1008.57080	-1161.42163	-65.34298	906.72205	-1255.64197	-342.15509	923.50769	-1245.89258				-46.81844	468.05774	-1304.22363	-414.77118	470.67694	-1311.82397							
187	1.860										-308.46280	1653.28943	-1188.58325																-504.90781	1157.50159	-1343.74890				-461.40201	1008.53674	-1161.91626	-64.44041	907.11517	-1255.08826	-341.97818	923.68933	-1245.07117				-46.39349	468.86453	-1301.70618	-415.19220	470.88412	-1311.11499							
188	1.870										-308.28543	1652.56921	-1188.34692																-504.31805	1157.37488	-1344.25024				-461.47977	1008.39258	-1162.20142	-63.85748	906.73303	-1266.14490	-341.88635	923.74316	-1244.63770				-44.60243	468.78143	-1302.20056	-413.39642	470.92676	-1311.06177							
189	1.880										-308.05078	1652.12207	-1188.17810																-504.03983	1157.27966	-1344.26001				-461.48602	1008.35651	-1162.52075	-63.07046	907.12732	-1254.23901	-341.35696	923.35828	-1246.28735				-44.01165	469.88412	-1298.69177	-413.18777	470.90131	-1310.97278							
190	1.890										-307.88242	1651.48657	-1187.87939																-503.74472	1157.21509	-1344.34216				-461.51825	1008.28357	-1162.84119	-62.22539	907.30713	-1253.76746	-341.29468	923.43732	-1246.00061				-43.33716	469.90930	-1296.70056	-413.10068	470.89551	-1310.93616							
191	1.900										-307.64972	1650.98682	-1187.52490																-503.41333	1157.12415	-1344.25916				-460.72244	1008.27191	-1163.72559	-62.04629	907.05920	-1252.62317	-341.17679	923.56262	-1245.45337				-41.59183	468.00003	-1300.15845	-412.96799	470.19214	-1310.26111							
192	1.910										-307.45654	1650.31470	-1187.26685																-503.06467	1157.02808	-1344.12622				-460.95822	1007.81110	-1162.81812	-61.79561	907.10492	-1252.43323	-341.06540	923.68958	-1244.93799				-40.84919	468.14902	-1300.61780	-412.35034	470.21811	-1309.65039							
193	1.920										-307.28485	1649.60400	-1186.85303																-502.69754	1156.96301	-1343.96777				-460.89337	1007.79199	-1162.80249	-61.59031	907.15289	-1252.27747	-340.95825	923.85181	-1244.44910				-40.70273	468.46625	-1299.75024	-411.25867	470.07596	-1309.31018							
194	1.930										-307.23288	1648.82458	-1186.81396																-501.95810	1156.82080	-1344.19202				-460.60992	1008.50586	-1164.03552	-61.47876	907.17401	-1252.19287	-340.42828	923.32196	-1244.90601				-40.70273	468.46625	-1299.75024	-410.32141	470.41159	-1307.74304							
195	1.940										-307.09723	1648.08374	-1186.23486																-501.49957	1156.63904	-1343.81909				-460.78857	1007.71204	-1162.77185	-60.63867	906.87030	-1251.76587	-339.64890	923.64209	-1245.07568				-40.20306	467.60464	-1300.57996	-409.48123	470.65973	-1307.18262							
196	1.950										-306.92194	1647.56433	-1186.12000																-501.13702	1156.53491	-1343.66467				-460.50934	1007.84686	-1163.63232	-59.94928	906.72205	-1251.36731	-338.41431	922.86145	-1244.32678				-39.98294	468.01605	-1299.26770	-407.87439	470.72153	-1306.27124							
197	1.960										-306.71439	1647.16504	-1185.58105																-500.28943	1156.36609	-1344.06079				-460.90128	1007.41656	-1162.67151	-58.97548	906.80823	-1250.84924	-337.42944	923.97900	-1239.76038				-39.69283	468.57132	-1297.53967	-405.73257	470.44171	-1304.36987							
198	1.970										-306.65411	1646.06274	-1184.45972																-499.68784	1156.55688	-1344.99829				-460.85733	1007.37372	-1162.65759	-58.51625	906.83319	-1250.50171	-336.63513	924.84583	-1236.07141				-38.84980	468.53284	-1295.61011	-404.58398	470.41318	-1302.96948							
199	1.980										-306.65149	1645.38232	-1184.20728																-499.13544	1156.18054	-1344.63269				-460.75980	1007.31201	-1162.63049	-57.86752	906.90533	-1250.01038	-334.80273	923.91901	-1238.05908				-38.13586	469.87570	-1291.35266	-403.10013	470.72437	-1301.14233							
200	1.990										-306.56537	1644.77563	-1183.86267																-498.81866	1156.08264	-1344.68103				-460.70422	1007.32813	-1161.96875	-56.09945	907.17059	-1249.04382	-334.64047	924.03833	-1237.29419				-36.88816	470.37521	-1289.83630	-399.72086	470.65463	-1299.73523							
201	2.000										-306.39548	1644.05542	-1182.92322																-498.51822	1155.96851	-1344.80432				-460.31699	1007.64716	-1162.91333	-54.89784	907.32886	-1248.43579	-333.92236	923.05939	-1238.80579				-34.83264	468.84476	-1293.20410	-396.82364	471.49991	-1296.28076							
202	2.010										-306.31564	1643.50842	-1182.25867							-193.47289	1296.93140	-1243.50830							-497.91330	1155.78235	-1345.35999				-460.67953	1007.06476	-1161.74390	-54.83321	907.05042	-1248.30872	-333.35135	922.29688	-1239.68994				-34.60953	469.23367	-1291.86536	-395.27225	471.33728	-1294.23499							
203	2.020										-306.46213	1642.23657	-1181.57361							-193.10506	1296.27649	-1242.22668							-497.69586	1155.62109	-1345.59497				-459.08670	1006.29108	-1162.81335	-53.48100	906.74042	-1247.61279	-333.04141	920.58008	-1239.88696				-34.15968	468.50641	-1292.28613	-390.91327	471.53540	-1289.97717							
204	2.030										-306.48416	1641.48865	-1180.97119							-193.29025	1295.83594	-1241.68445							-497.50980	1155.40295	-1346.03223				-459.15582	1006.09363	-1162.79456	-53.29764	906.68793	-1247.47461	-332.74954	920.85278	-1238.52002				-34.04120	468.66663	-1291.56946	-388.67282	471.13135	-1287.00256							
205	2.040										-306.39624	1640.80212	-1180.33972							-193.31660	1295.74194	-1241.40259							-497.33774	1154.67798	-1345.39075				-460.15137	1005.13934	-1161.34314	-52.20788	906.68738	-1246.88794	-331.99387	921.61542	-1234.98962				-33.92394	468.68213	-1290.84326	-384.11603	471.30099	-1282.54333							
206	2.050										-306.45700	1639.50977	-1178.97180							-192.66119	1295.05408	-1241.08240							-496.93762	1154.06079	-1345.19202				-459.40518	1004.78003	-1161.87073	-51.89514	905.44147	-1246.35095	-330.30319	921.13281	-1233.10791				-33.56247	467.33774	-1290.37976	-380.95917	471.11713	-1277.47473							
207	2.060										-306.54361	1638.19226	-1177.61316							-191.29755	1294.14502	-1240.62927							-496.71716	1153.83643	-1345.49976				-459.74142	1004.00995	-1161.98718	-50.39089	904.32886	-1246.29639	-329.04871	921.37701	-1231.88293				-33.33758	466.52820	-1289.51624	-375.29691	471.10651	-1273.48999							
208	2.070										-306.57523	1637.72449	-1177.12048							-191.14540	1294.12207	-1238.55469							-496.33704	1153.14526	-1345.02954				-459.62476	1003.92694	-1161.40454	-49.54813	903.92902	-1245.76489	-327.88971	920.12408	-1232.97961				-32.91497	466.31543	-1287.49438	-371.84946	471.50082	-1269.49084							
209	2.080										-306.62698	1636.73352	-1175.82471							-191.12344	1293.49622	-1237.92249							-495.92120	1152.35461	-1344.14148				-459.32465	1003.53870	-1161.00671	-49.01521	903.46423	-1244.39343	-327.23544	919.76868	-1234.03479				-32.64094	466.60919	-1283.73486	-367.75800	472.85846	-1263.32678							
210	2.090										-306.68695	1635.42236	-1173.64600							-191.12344	1293.49622	-1237.92249							-495.61694	1152.10425	-1343.81494				-458.47891	1002.27185	-1160.50842	-48.62317	903.47546	-1244.09668	-327.39270	919.45471	-1232.65784				-31.73055	466.42999	-1282.08875	-367.79092	476.01978	-1257.79175				-367.89261	84.51729	-1384.72473	
211	2.100										-306.78046	1634.45068	-1172.31555							-191.01611	1293.47205	-1236.40320							-495.47751	1151.08691	-1341.42273				-459.25076	1001.84467	-1160.22705	-48.44271	903.43915	-1243.96045	-326.92706	918.32947	-1233.72522				-31.27710	467.16025	-1279.35645	-366.16550	478.21649	-1251.89380				-368.98642	90.02493	-1374.74268	
212	2.110										-306.88046	1633.41675	-1171.00110							-190.64200	1292.93872	-1234.89893							-495.17987	1150.94153	-1340.92822				-459.95410	1002.11279	-1160.02771	-48.30502	903.13019	-1242.85632	-326.73633	917.52332	-1233.22656				-30.84555	467.86179	-1276.75647	-365.48196	480.92218	-1243.94824				-367.56705	91.54972	-1378.32373	
213	2.120										-307.05508	1631.91028	-1168.51917							-190.85300	1292.57068	-1233.93811							-494.88507	1150.84998	-1340.25952				-459.52225	1000.33087	-1159.60229	-48.33690	903.14673	-1241.13403	-326.84720	917.06732	-1231.91370				-30.33006	467.17123	-1276.76794	-365.46265	482.33151	-1234.68176				-367.76065	96.11303	-1373.98145	
214	2.130										-307.29855	1631.06506	-1167.29089							-191.90057	1292.61157	-1231.80188							-494.37100	1150.45032	-1339.03247				-459.52539	999.70380	-1158.33264	-49.50053	903.02850	-1238.92639	-326.74936	917.04761	-1231.43567				-30.25440	467.16776	-1276.29614	-363.71823	481.58884	-1223.80994				-367.27451	97.79832	-1371.92346	
215	2.140										-307.57214	1630.04285	-1165.66797							-191.90057	1292.61157	-1231.80188							-494.15814	1150.45715	-1338.31580				-459.89252	998.79596	-1157.55066	-49.60228	902.92816	-1239.00378	-326.58148	916.44141	-1231.16772				-30.17606	467.17911	-1275.80920	-362.27188	482.74548	-1213.39453				-367.08734	103.82733	-1366.01660	
216	2.150										-307.80856	1628.62744	-1162.95654							-191.89365	1292.35376	-1230.01318							-494.04492	1150.44690	-1337.72156				-460.17410	998.71985	-1156.82910	-50.39675	902.77344	-1239.36572	-326.50351	916.42426	-1230.78662				-30.14108	467.10098	-1275.58093	-361.83902	485.09082	-1203.42639				-366.18924	105.88235	-1361.97180	
217	2.160										-308.12033	1627.73352	-1161.32666							-191.81476	1292.36084	-1229.05835							-493.98282	1150.41797	-1337.16382				-460.24313	998.46448	-1156.41675	-50.53375	903.38831	-1234.07922	-326.43771	916.29907	-1230.44666				-30.14064	466.98526	-1275.56323	-360.58545	487.61136	-1194.28003				-364.46252	107.86616	-1360.78210	
218	2.170										-308.39041	1626.88379	-1159.24487							-191.86334	1292.17822	-1228.46570							-493.99307	1150.43213	-1336.46289				-460.34198	997.82971	-1155.81091	-51.40706	903.20300	-1234.49841	-326.81992	916.42279	-1228.43066				-30.62662	467.25687	-1273.61584	-359.43689	490.33569	-1185.36096				-363.31317	109.89902	-1356.23376	
